<svg xmlns="http://www.w3.org/2000/svg" viewBox="0 0 269.62 281.43">
  <defs>
    <style>.cls-1{font-size:249.4px;fill:#415675;font-family:Calibri}.cls-2{fill:#4d648d}.cls-3{fill:#fff}
    </style>
  </defs>
  <title> Coders Time logo </title>
  <g id="Layer_2" data-name="Layer 2">
    <g id="Layer_1-2" data-name="Layer 1">
      <text class="cls-1" transform="translate(0 203.49)"><tspan xml:space="preserve">{  }</tspan></text>
      <g>
        <path class="cls-2" d="M196.79,93.52l11.59,8.79a29.06,29.06,0,0,0-6.77-41.68c-13.6-9.34-31.25-5-39.51,6.29l9,7c-22.76-9.83-45.45-10.13-68.33-.58l8.31-6.5C103.36,57.86,93.89,54.06,82.39,56a29.09,29.09,0,0,0-23,22.46c-1.85,8.67,0,16.58,5.26,23.85l9.9-7.68.27.23A80.53,80.53,0,0,0,57.3,132.77a79.49,79.49,0,0,0,28.26,75.31,80.32,80.32,0,0,0,99.65,1.33c14.7-11.41,24.53-26.16,28.75-44.29C220.16,138.51,213.83,114.75,196.79,93.52ZM136.24,216.8C97,216.67,65.29,185.35,65.43,146a70.76,70.76,0,1,1,70.81,70.83Z"/>
        <path class="cls-2" d="M125.58,61.24c1.46,0,2.91.06,4.37,0,1,0,1.54.28,1.39,1.38a2,2,0,0,0,0,1.08c.16.32.55.73.84.73,2.63.06,5.25.06,7.88,0a1.22,1.22,0,0,0,.83-.7,2.72,2.72,0,0,0,0-1.21c-.09-.94.29-1.31,1.25-1.27,1.63,0,3.27,0,4.91,0a6.83,6.83,0,0,0,6.68-7,6.76,6.76,0,0,0-6.76-6.75c-1.46,0-2.91-.06-4.36,0a1.7,1.7,0,0,1-2-1.39,4.68,4.68,0,0,0-8.68-.42,2.39,2.39,0,0,1-3,1.8,10.29,10.29,0,0,0-1.36,0c-.68,0-1.36,0-2,0a6.88,6.88,0,1,0,0,13.75Z"/>
        <path class="cls-2" d="M86,218.66a8.94,8.94,0,0,0,2.44,11.58c3.76,2.78,9.15,2.5,12.14-1a60.49,60.49,0,0,0,4.57-7l-16.15-9C88.05,215,87,216.8,86,218.66Z"/>
        <path class="cls-2" d="M183.51,213.21l-16.22,9a71.08,71.08,0,0,0,4.21,6.73,9,9,0,0,0,10.89,2.29c4-2.08,6.18-6.24,4.84-10.3A58.34,58.34,0,0,0,183.51,213.21Z"/>
        <path class="cls-2" d="M179.82,118.55c1.23-.77,2.51-1.47,3.76-2.21l5-3A60.47,60.47,0,0,0,169.22,93.8l-.95,1.65c-1.44,2.53-2.83,5.08-4.33,7.57a2.24,2.24,0,0,1-4.11-.1,3.29,3.29,0,0,1,.17-2.51c1.57-3,3.31-5.94,5.07-9a63.1,63.1,0,0,0-26.65-6.92V86c0,3,0,6.09,0,9.14a2.32,2.32,0,0,1-2,2.39A2.43,2.43,0,0,1,134,95.46a7.59,7.59,0,0,1-.06-1.35c0-2.73,0-5.46,0-8.19,0-.47-.06-1-.09-1.49a59.28,59.28,0,0,0-26.49,7.26c1.77,3,3.45,5.87,5.11,8.73a2.4,2.4,0,0,1-.85,3.58c-1.2.69-2.45.24-3.29-1.21-1.36-2.36-2.69-4.74-4-7.11-.35-.61-.73-1.21-1.12-1.87a60.64,60.64,0,0,0-19.27,19.6c2.94,1.73,5.76,3.37,8.56,5a4.13,4.13,0,0,1,1.31,1.14,2,2,0,0,1,0,2.63,2.06,2.06,0,0,1-2.73.41l-1.9-1.06-7.67-4.34a63.21,63.21,0,0,0-6.94,26.61H76.2c2.82,0,5.64,0,8.46,0,1.67,0,2.68.94,2.66,2.41a2.42,2.42,0,0,1-2.7,2.4c-2.69,0-5.37,0-8.06,0-2.19,0-2.21,0-2,2.16a64.19,64.19,0,0,0,3.29,15.82c1,2.88,2.28,5.69,3.48,8.66,3.34-1.9,6.41-3.65,9.5-5.38a2.21,2.21,0,0,1,3.06.46,2.4,2.4,0,0,1-.63,3.06,18.34,18.34,0,0,1-2.19,1.38c-2.37,1.41-4.75,2.8-7.21,4.25a60.85,60.85,0,0,0,19.29,19.58c.36-.58.65-1,.91-1.5,1.47-2.57,2.9-5.15,4.39-7.7a2.17,2.17,0,0,1,3.11-1,2.33,2.33,0,0,1,1,3.33c-.26.48-.55.95-.82,1.42l-4.45,7.59A59.18,59.18,0,0,0,133.81,208c0-.72.08-1.25.09-1.79,0-2.82,0-5.63,0-8.45,0-1.75,1-2.93,2.41-2.89s2.09,1.13,2.1,2.84c0,2.91,0,5.82,0,8.73,0,.48.05,1,.08,1.57a58.73,58.73,0,0,0,26.56-7.26c-1.77-3-3.45-5.87-5.12-8.73a2.39,2.39,0,0,1,.91-3.59c1.17-.68,2.34-.29,3.18,1.12,1,1.65,1.88,3.32,2.83,5l2.39,4.13a61,61,0,0,0,19.27-19.6c-.47-.3-.81-.52-1.16-.72q-3.71-2.17-7.4-4.36a4.4,4.4,0,0,1-1-.72,2.22,2.22,0,0,1-.14-3,1.86,1.86,0,0,1,2.67-.43c3.12,1.75,6.22,3.53,9.45,5.36a64,64,0,0,0,6.94-26.57c-3.49,0-6.8,0-10.12,0-1.72,0-2.63-.86-2.63-2.41s.86-2.4,2.62-2.4q4.52,0,9,0c.74,0,1.15-.09,1.1-1.05a63.11,63.11,0,0,0-6.31-24.36c-.19-.38-.42-.74-.65-1.16l-1,.54q-4.22,2.37-8.43,4.76a1.84,1.84,0,0,1-2.48-.2,2.11,2.11,0,0,1-.44-2.63A3.78,3.78,0,0,1,179.82,118.55Z"/>
      </g>
      <g>
        <path class="cls-3" d="M126.93,167.45l.65-2.3q6.77-23.67,13.52-47.35c.14-.46.32-.63.82-.62,2,0,4,0,6,0h.54c-.32,1.14-.62,2.22-.93,3.29q-6.66,23.27-13.3,46.53a.5.5,0,0,1-.58.45C131.46,167.44,129.24,167.45,126.93,167.45Z"/>
        <path class="cls-3" d="M101.79,142.3l3.77-4.71q5.16-6.43,10.32-12.87a.87.87,0,0,1,.57-.33q3.26,0,6.52,0l.33,0L109,142.32l14.35,17.92-.48,0h-6.3A.84.84,0,0,1,116,160q-7.05-8.78-14.08-17.57Z"/>
        <path class="cls-3" d="M173.62,142.33l-5.73,7.15q-4.17,5.22-8.33,10.43a.88.88,0,0,1-.75.37c-2.05,0-4.11,0-6.16,0h-.58l14.37-18-14.32-17.89a2.09,2.09,0,0,1,.38-.05h6.42a.84.84,0,0,1,.53.24q7,8.74,14,17.5A2.37,2.37,0,0,1,173.62,142.33Z"/>
      </g>
    </g>
  </g>
</svg>
